<svg xmlns="http://www.w3.org/2000/svg" viewBox="0 0 189.66 138.23"><defs><style>.cls-1,.cls-2{fill:#ff4f4f;}.cls-2{font-size:43.48px;font-family:HelveticaNeue-Bold, Helvetica Neue;font-weight:700;letter-spacing:-0.03em;}</style></defs><g id="Layer_2" data-name="Layer 2"><g id="Layer_1-2" data-name="Layer 1"><path class="cls-1" d="M73.18,77.55a35.46,35.46,0,1,1,35.46-35.46A35.5,35.5,0,0,1,73.18,77.55Zm0-65.33a29.87,29.87,0,1,0,29.88,29.87A29.9,29.9,0,0,0,73.18,12.22Z"/><path class="cls-1" d="M111.33,81.22,70.72,40.61,111.33,0l40.61,40.61ZM78.62,40.61l32.71,32.71L144,40.61,111.33,7.9Z"/><rect class="cls-1" x="91" y="47.14" width="41.17" height="5.58" transform="translate(-2.62 93.52) rotate(-45)"/><rect class="cls-1" x="101.7" y="28.84" width="29.59" height="5.58" transform="translate(11.75 91.63) rotate(-45)"/><text class="cls-2" transform="translate(12.45 117.32)">formism</text></g></g></svg>